<svg width="94" height="94" viewBox="0 0 94 94" fill="none" xmlns="http://www.w3.org/2000/svg">
<circle cx="47" cy="47" r="47" fill="#2387C0" fill-opacity="0.3"/>
<circle cx="47" cy="47" r="37" fill="#2387C0"/>
<path d="M59 37.3064H53.6875V35.9489C53.6875 34.8383 53.3021 33.9025 52.5312 33.1415C51.7604 32.3805 50.8125 32 49.6875 32H44.3125C43.1875 32 42.2396 32.3805 41.4688 33.1415C40.6979 33.9025 40.3125 34.8383 40.3125 35.9489V37.3064H35C33.875 37.3064 32.9271 37.6766 32.1562 38.417C31.3854 39.1574 31 40.1035 31 41.2553V46.5C31 47.3638 31.4375 47.7957 32.3125 47.7957V58.3468C32.3125 59.0461 32.5833 59.6631 33.125 60.1979C33.6667 60.7326 34.2917 61 35 61H59C59.7083 61 60.3333 60.7326 60.875 60.1979C61.4167 59.6631 61.6875 59.0461 61.6875 58.3468V47.7957C62.5625 47.7957 63 47.3638 63 46.5V41.2553C63 40.1035 62.6146 39.1574 61.8438 38.417C61.0729 37.6766 60.125 37.3064 59 37.3064ZM43 35.9489C43 35.5787 43.125 35.2702 43.375 35.0234C43.625 34.7766 43.9375 34.6532 44.3125 34.6532H49.6875C50.0625 34.6532 50.375 34.7766 50.625 35.0234C50.875 35.2702 51 35.5787 51 35.9489V37.3064H43V35.9489ZM35 58.3468V47.7957H43V51.7447C43 52.4851 43.2604 53.1124 43.7812 53.6266C44.3021 54.1408 44.9375 54.3979 45.6875 54.3979H48.3125C49.0625 54.3979 49.6979 54.1408 50.2188 53.6266C50.7396 53.1124 51 52.4851 51 51.7447V47.7957H59V58.3468H35ZM45.6875 51.7447V47.7957H48.3125V51.7447H45.6875ZM60.3125 45.2043H33.6875V41.2553C33.6875 40.3504 34.125 39.8979 35 39.8979H59C59.875 39.8979 60.3125 40.3504 60.3125 41.2553V45.2043Z" fill="white"/>
<circle cx="47" cy="47" r="47" fill="#2387C0" fill-opacity="0.3"/>
<circle cx="47" cy="47" r="37" fill="#2387C0"/>
<path d="M58.7529 32.2813H50.3516C50.0903 32.2811 49.8397 32.3843 49.6543 32.5684L32.8584 49.3643C32.4906 49.7338 32.2842 50.234 32.2842 50.7554C32.2842 51.2768 32.4906 51.7769 32.8584 52.1465L40.8565 60.1445C41.226 60.5123 41.7262 60.7188 42.2476 60.7188C42.7689 60.7188 43.2691 60.5123 43.6387 60.1445L60.4277 43.3555C60.6118 43.1701 60.715 42.9194 60.7149 42.6582V34.25C60.7161 33.9917 60.6663 33.7357 60.5682 33.4967C60.4702 33.2577 60.3258 33.0405 60.1435 32.8575C59.9611 32.6745 59.7444 32.5294 59.5057 32.4305C59.2671 32.3316 59.0113 32.2809 58.7529 32.2813V32.2813Z" stroke="white" stroke-width="3" stroke-linecap="round" stroke-linejoin="round"/>
<path d="M55.25 39.9375C54.8174 39.9375 54.3944 39.8092 54.0347 39.5688C53.675 39.3285 53.3946 38.9868 53.229 38.5871C53.0634 38.1874 53.0201 37.7476 53.1045 37.3232C53.1889 36.8989 53.3973 36.5091 53.7032 36.2032C54.0091 35.8973 54.3989 35.6889 54.8232 35.6045C55.2476 35.5201 55.6874 35.5634 56.0871 35.729C56.4868 35.8946 56.8285 36.175 57.0688 36.5347C57.3092 36.8944 57.4375 37.3174 57.4375 37.75C57.4375 38.3302 57.207 38.8866 56.7968 39.2968C56.3866 39.707 55.8302 39.9375 55.25 39.9375Z" fill="white"/>
</svg>
